<mxfile host="app.diagrams.net" modified="2024-05-08T09:47:54.241Z" agent="Mozilla/5.0 (Windows NT 10.0; Win64; x64) AppleWebKit/537.36 (KHTML, like Gecko) Chrome/122.0.0.0 YaBrowser/24.4.0.0 Safari/537.36" etag="59jDpX73zv1pjHM-CRah" version="24.2.5" type="github">
  <diagram name="Страница — 1" id="kT3iGXqU4Sj4gHsG5hMl">
    <mxGraphModel dx="1374" dy="762" grid="1" gridSize="10" guides="1" tooltips="1" connect="1" arrows="1" fold="1" page="1" pageScale="1" pageWidth="827" pageHeight="1169" math="0" shadow="0">
      <root>
        <mxCell id="0" />
        <mxCell id="1" parent="0" />
        <mxCell id="QiGSiXA26jFdG_ha2yOh-4" value="" style="edgeStyle=orthogonalEdgeStyle;rounded=0;orthogonalLoop=1;jettySize=auto;html=1;" edge="1" parent="1" source="QiGSiXA26jFdG_ha2yOh-2">
          <mxGeometry relative="1" as="geometry">
            <mxPoint x="400" y="290" as="targetPoint" />
          </mxGeometry>
        </mxCell>
        <mxCell id="QiGSiXA26jFdG_ha2yOh-2" value="string [ ] str&lt;div&gt;string [ ] str 2&lt;/div&gt;&lt;div&gt;int k=0&lt;/div&gt;" style="shape=parallelogram;perimeter=parallelogramPerimeter;whiteSpace=wrap;html=1;fixedSize=1;" vertex="1" parent="1">
          <mxGeometry x="340" y="130" width="120" height="100" as="geometry" />
        </mxCell>
        <mxCell id="QiGSiXA26jFdG_ha2yOh-8" value="" style="edgeStyle=orthogonalEdgeStyle;rounded=0;orthogonalLoop=1;jettySize=auto;html=1;" edge="1" parent="1" source="QiGSiXA26jFdG_ha2yOh-5" target="QiGSiXA26jFdG_ha2yOh-7">
          <mxGeometry relative="1" as="geometry" />
        </mxCell>
        <mxCell id="QiGSiXA26jFdG_ha2yOh-26" style="edgeStyle=orthogonalEdgeStyle;rounded=0;orthogonalLoop=1;jettySize=auto;html=1;entryX=0;entryY=0.5;entryDx=0;entryDy=0;" edge="1" parent="1" source="QiGSiXA26jFdG_ha2yOh-5" target="QiGSiXA26jFdG_ha2yOh-19">
          <mxGeometry relative="1" as="geometry">
            <Array as="points">
              <mxPoint x="445" y="550" />
              <mxPoint x="310" y="550" />
              <mxPoint x="310" y="330" />
            </Array>
          </mxGeometry>
        </mxCell>
        <mxCell id="QiGSiXA26jFdG_ha2yOh-28" value="no" style="edgeLabel;html=1;align=center;verticalAlign=middle;resizable=0;points=[];" vertex="1" connectable="0" parent="QiGSiXA26jFdG_ha2yOh-26">
          <mxGeometry x="0.2334" y="-3" relative="1" as="geometry">
            <mxPoint x="7" y="-5" as="offset" />
          </mxGeometry>
        </mxCell>
        <mxCell id="QiGSiXA26jFdG_ha2yOh-5" value="if (str[i].Length&amp;lt;=3)" style="rhombus;whiteSpace=wrap;html=1;" vertex="1" parent="1">
          <mxGeometry x="360" y="428" width="170" height="110" as="geometry" />
        </mxCell>
        <mxCell id="QiGSiXA26jFdG_ha2yOh-25" style="edgeStyle=orthogonalEdgeStyle;rounded=0;orthogonalLoop=1;jettySize=auto;html=1;entryX=0;entryY=0.5;entryDx=0;entryDy=0;" edge="1" parent="1" source="QiGSiXA26jFdG_ha2yOh-7" target="QiGSiXA26jFdG_ha2yOh-19">
          <mxGeometry relative="1" as="geometry">
            <mxPoint x="310" y="320" as="targetPoint" />
            <Array as="points">
              <mxPoint x="660" y="590" />
              <mxPoint x="281" y="590" />
              <mxPoint x="281" y="320" />
              <mxPoint x="330" y="320" />
            </Array>
          </mxGeometry>
        </mxCell>
        <mxCell id="QiGSiXA26jFdG_ha2yOh-7" value="str2[k] = str[i]&lt;div&gt;k++&lt;/div&gt;" style="whiteSpace=wrap;html=1;" vertex="1" parent="1">
          <mxGeometry x="630" y="453" width="120" height="60" as="geometry" />
        </mxCell>
        <mxCell id="QiGSiXA26jFdG_ha2yOh-9" value="yes" style="text;html=1;align=center;verticalAlign=middle;resizable=0;points=[];autosize=1;strokeColor=none;fillColor=none;" vertex="1" parent="1">
          <mxGeometry x="560" y="460" width="40" height="30" as="geometry" />
        </mxCell>
        <mxCell id="QiGSiXA26jFdG_ha2yOh-20" style="edgeStyle=orthogonalEdgeStyle;rounded=0;orthogonalLoop=1;jettySize=auto;html=1;exitX=0.5;exitY=1;exitDx=0;exitDy=0;entryX=0.5;entryY=0;entryDx=0;entryDy=0;" edge="1" parent="1" source="QiGSiXA26jFdG_ha2yOh-19" target="QiGSiXA26jFdG_ha2yOh-5">
          <mxGeometry relative="1" as="geometry" />
        </mxCell>
        <mxCell id="QiGSiXA26jFdG_ha2yOh-19" value="for (int i =0; i&amp;lt;str.Length;i++)" style="shape=hexagon;perimeter=hexagonPerimeter2;whiteSpace=wrap;html=1;fixedSize=1;" vertex="1" parent="1">
          <mxGeometry x="330" y="290" width="230" height="80" as="geometry" />
        </mxCell>
        <mxCell id="QiGSiXA26jFdG_ha2yOh-30" value="" style="edgeStyle=orthogonalEdgeStyle;rounded=0;orthogonalLoop=1;jettySize=auto;html=1;" edge="1" parent="1" source="QiGSiXA26jFdG_ha2yOh-29" target="QiGSiXA26jFdG_ha2yOh-2">
          <mxGeometry relative="1" as="geometry" />
        </mxCell>
        <mxCell id="QiGSiXA26jFdG_ha2yOh-29" value="FillingSecondStr" style="rounded=1;whiteSpace=wrap;html=1;" vertex="1" parent="1">
          <mxGeometry x="340" y="20" width="120" height="60" as="geometry" />
        </mxCell>
      </root>
    </mxGraphModel>
  </diagram>
</mxfile>
